<svg xmlns="http://www.w3.org/2000/svg" viewBox="0 0 1200 900" role="img" aria-label="Serrotes de Quixada ao entardecer">
  <rect width="1200" height="900" fill="#171719"/>
  <path d="M0 540 C120 478 220 480 320 518 C430 560 470 505 552 468 C632 432 708 470 768 510 C850 565 910 520 988 476 C1068 431 1142 480 1200 528 L1200 900 L0 900 Z" fill="#59412a"/>
  <path d="M0 650 C140 612 242 625 350 642 C488 664 582 626 710 604 C858 578 998 604 1200 560 L1200 900 L0 900 Z" fill="#2f342f"/>
  <path d="M0 744 C150 706 298 720 438 742 C596 767 716 730 862 710 C1014 690 1118 706 1200 724 L1200 900 L0 900 Z" fill="#111212"/>
  <circle cx="875" cy="210" r="92" fill="#f3b544"/>
</svg>
